<?xml version="1.0" encoding="UTF-8"?>
<svg version="1.1" xmlns="http://www.w3.org/2000/svg" width="500" height="500" viewBox="0 0 500 500">
<path d="M0 0 C1.0209375 0.52787109 1.0209375 0.52787109 2.0625 1.06640625 C12.19644355 6.88190795 17.0224433 14.62700247 21.3125 25.25 C22.78363011 33.27434605 22.94207103 41.32960053 20 49 C16.79279138 49.5073957 13.58407837 50.004579 10.375 50.5 C9.47136719 50.64308594 8.56773437 50.78617187 7.63671875 50.93359375 C3.04560134 51.63734167 -1.33831815 52.18584778 -6 52 C-6.350625 50.7625 -6.70125 49.525 -7.0625 48.25 C-8.57963545 44.23279626 -10.24108791 42.45359751 -14.1015625 40.62109375 C-18.39087876 39.21779893 -21.72896355 39.43509491 -25.8125 41.25 C-28.19777062 43.1582165 -29.11189676 44.09348031 -30 47 C-30.43043815 52.86526293 -30.43043815 52.86526293 -28 58 C-23.73261672 61.28572287 -19.76824945 61.50363275 -14.5625 61.4375 C-13.77568848 61.43427734 -12.98887695 61.43105469 -12.17822266 61.42773438 C-4.67647983 61.25190044 1.93288189 59.54507147 9 57 C11.0625 59.3125 11.0625 59.3125 13 62 C12 65 12 65 8.9453125 66.7890625 C7.67686551 67.41131952 6.40314701 68.02291878 5.125 68.625 C4.48691406 68.93695313 3.84882813 69.24890625 3.19140625 69.5703125 C-6.74272528 74.38183341 -18.43466515 74.34252945 -29.2578125 72.421875 C-37.98349999 69.33561898 -45.28717063 62.0583945 -49.96484375 54.21484375 C-55.01397701 43.41160392 -56.81831906 30.28864647 -52.7109375 18.765625 C-48.65154395 9.39357778 -42.63528231 3.56142717 -33.625 -0.9375 C-23.56788732 -4.80955228 -9.71719792 -5.04079642 0 0 Z " fill="#4C2F07" transform="translate(283,215)"/>
<path d="M0 0 C5.38935067 -0.09952633 10.7781561 -0.17177659 16.16821289 -0.21972656 C17.99838593 -0.23973374 19.82849592 -0.26694851 21.65844727 -0.30175781 C24.30240512 -0.35076003 26.94551165 -0.37307761 29.58984375 -0.390625 C30.79978249 -0.42159271 30.79978249 -0.42159271 32.03416443 -0.45318604 C39.11187446 -0.45592705 44.96351082 1.58396991 50.5234375 6.0078125 C57.92205956 14.46784025 59.64310034 22.24640753 59.33984375 33.40625 C58.43266216 42.99943461 55.68837808 50.23054516 49.09765625 57.29296875 C46.83071846 59.13775798 44.75531426 60.06558908 42 61 C43.65128827 65.8037477 46.26388311 69.75181852 49 74 C44.38 74 39.76 74 35 74 C34.29875 72.205625 33.5975 70.41125 32.875 68.5625 C31.38642464 65.44344492 31.38642464 65.44344492 29 63 C24.2846076 61.72160473 19.85692906 61.71390692 15 62 C15 65.96 15 69.92 15 74 C10.38 74 5.76 74 1 74 C-0.16317329 22.03152113 -0.16317329 22.03152113 0 0 Z " fill="#4C2F07" transform="translate(28,213)"/>
<path d="M0 0 C8.25 0 16.5 0 25 0 C26.29035156 3.60550781 27.58070313 7.21101562 28.91015625 10.92578125 C30.18428077 14.4840427 31.45870396 18.04219704 32.7331543 21.6003418 C33.60716323 24.04098565 34.48086998 26.48173774 35.35424805 28.92260742 C36.622055 32.46562962 37.89083411 36.00830161 39.16015625 39.55078125 C39.57302887 40.70361603 39.98590149 41.85645081 40.4112854 43.04421997 C43.22221414 50.87700101 46.07721773 58.69237427 49.01686096 66.4778595 C51 71.7842699 51 71.7842699 51 74 C39.12 74 27.24 74 15 74 C14.34 72.68 13.68 71.36 13 70 C6.07 69.67 -0.86 69.34 -8 69 C-8.66 70.65 -9.32 72.3 -10 74 C-14.95 74 -19.9 74 -25 74 C-22.86237785 65.85222718 -20.37353074 57.89343367 -17.65625 49.921875 C-17.24588501 48.71106262 -16.83552002 47.50025024 -16.41271973 46.25274658 C-15.55033887 43.71090832 -14.68669472 41.16954522 -13.82080078 38.62890625 C-12.71727079 35.39050981 -11.61922699 32.15028474 -10.52283478 28.90946579 C-9.46594153 25.78764996 -8.40467601 22.6673222 -7.34375 19.546875 C-6.95304321 18.39257996 -6.56233643 17.23828491 -6.15979004 16.04901123 C-5.78930542 14.96388245 -5.4188208 13.87875366 -5.03710938 12.76074219 C-4.71528687 11.81463074 -4.39346436 10.86851929 -4.06188965 9.89373779 C-2.83374221 6.54693368 -1.40433439 3.27678025 0 0 Z " fill="#4C3007" transform="translate(403,213)"/>
<path d="M0 0 C8.25 0 16.5 0 25 0 C26.29035156 3.60550781 27.58070313 7.21101562 28.91015625 10.92578125 C30.18428077 14.4840427 31.45870396 18.04219704 32.7331543 21.6003418 C33.60716323 24.04098565 34.48086998 26.48173774 35.35424805 28.92260742 C36.622055 32.46562962 37.89083411 36.00830161 39.16015625 39.55078125 C39.57302887 40.70361603 39.98590149 41.85645081 40.4112854 43.04421997 C43.22221414 50.87700101 46.07721773 58.69237427 49.01686096 66.4778595 C51 71.7842699 51 71.7842699 51 74 C39.12 74 27.24 74 15 74 C14.34 72.68 13.68 71.36 13 70 C6.07 69.67 -0.86 69.34 -8 69 C-8.66 70.65 -9.32 72.3 -10 74 C-14.95 74 -19.9 74 -25 74 C-22.86237785 65.85222718 -20.37353074 57.89343367 -17.65625 49.921875 C-17.24588501 48.71106262 -16.83552002 47.50025024 -16.41271973 46.25274658 C-15.55033887 43.71090832 -14.68669472 41.16954522 -13.82080078 38.62890625 C-12.71727079 35.39050981 -11.61922699 32.15028474 -10.52283478 28.90946579 C-9.46594153 25.78764996 -8.40467601 22.6673222 -7.34375 19.546875 C-6.95304321 18.39257996 -6.56233643 17.23828491 -6.15979004 16.04901123 C-5.78930542 14.96388245 -5.4188208 13.87875366 -5.03710938 12.76074219 C-4.71528687 11.81463074 -4.39346436 10.86851929 -4.06188965 9.89373779 C-2.83374221 6.54693368 -1.40433439 3.27678025 0 0 Z " fill="#4C3007" transform="translate(113,213)"/>
<path d="M0 0 C6.22875 -0.103125 12.4575 -0.20625 18.875 -0.3125 C21.79255127 -0.38078003 21.79255127 -0.38078003 24.76904297 -0.45043945 C41.86975858 -0.68533821 41.86975858 -0.68533821 49 5 C55.80584718 11.9289852 59.18078776 20.21350944 59.5 29.875 C59.13093777 40.49707237 56.38746715 48.37759472 49.09765625 56.16015625 C43.66451178 60.92553995 38.80692108 62.13922176 31.69921875 62.09765625 C30.72275391 62.09443359 29.74628906 62.09121094 28.74023438 62.08789062 C27.73283203 62.07951172 26.72542969 62.07113281 25.6875 62.0625 C24.66076172 62.05798828 23.63402344 62.05347656 22.57617188 62.04882812 C20.05075612 62.03708201 17.52537048 62.01914771 15 62 C15 65.96 15 69.92 15 74 C10.05 74 5.1 74 0 74 C0 49.58 0 25.16 0 0 Z " fill="#4D3008" transform="translate(166,213)"/>
<path d="M0 0 C5.28 0 10.56 0 16 0 C16 8.58 16 17.16 16 26 C27.22 26 38.44 26 50 26 C50 17.42 50 8.84 50 0 C55.28 0 60.56 0 66 0 C66.11490146 24.69104798 65.89497534 49.32425132 65 74 C60.38 74 55.76 74 51 74 C51 69.38 51 64.76 51 60 C38.79 60 26.58 60 14 60 C14 64.62 14 69.24 14 74 C9.38 74 4.76 74 0 74 C0 49.58 0 25.16 0 0 Z " fill="#4C2F07" transform="translate(310,213)"/>
<path d="M0 0 C5.28 0 10.56 0 16 0 C16.06855183 16.84090022 15.86816259 33.66335652 15.5 50.5 C15.45159343 52.79947435 15.40341544 55.09895352 15.35546875 57.3984375 C15.23959767 62.93235048 15.12069098 68.46619013 15 74 C10.05 74 5.1 74 0 74 C0 49.58 0 25.16 0 0 Z " fill="#4E320A" transform="translate(456,213)"/>
</svg>
