<?xml version="1.0" encoding="UTF-8"?>
<svg version="1.1" xmlns="http://www.w3.org/2000/svg" width="500" height="500">
<path d="M0 0 C165 0 330 0 500 0 C500 165 500 330 500 500 C335 500 170 500 0 500 C0 335 0 170 0 0 Z " fill="#D9D6D3" transform="translate(0,0)"/>
<path d="M0 0 C9.44599724 6.57814229 16.79323972 16.22150132 18.87109375 27.74609375 C18.98970373 30.03554216 19.04626856 32.3286081 19.05859375 34.62109375 C19.07277344 35.81476563 19.08695312 37.0084375 19.1015625 38.23828125 C18.87114367 41.74533397 18.13388836 44.48179464 16.87109375 47.74609375 C13.66388513 48.25348945 10.45517212 48.75067275 7.24609375 49.24609375 C6.34246094 49.38917969 5.43882812 49.53226562 4.5078125 49.6796875 C-0.08330491 50.38343542 -4.4672244 50.93194153 -9.12890625 50.74609375 C-9.54140625 49.67359375 -9.95390625 48.60109375 -10.37890625 47.49609375 C-11.78616385 44.21691803 -13.32015441 42.02820462 -16.12890625 39.74609375 C-20.67953038 38.22921904 -24.51125021 38.02713551 -28.94140625 39.99609375 C-31.32667687 41.90431025 -32.24080301 42.83957406 -33.12890625 45.74609375 C-33.6211749 51.65325528 -33.6211749 51.65325528 -31.12890625 56.74609375 C-19.98505604 62.4018072 -8.06143937 60.29583654 3.37109375 56.62109375 C4.19609375 56.33234375 5.02109375 56.04359375 5.87109375 55.74609375 C7.93359375 58.05859375 7.93359375 58.05859375 9.87109375 60.74609375 C8.68056491 64.31768028 7.45846271 64.7600238 4.21240234 66.39819336 C3.58414551 66.69862549 2.95588867 66.99905762 2.30859375 67.30859375 C1.66744629 67.61869385 1.02629883 67.92879395 0.36572266 68.24829102 C-10.30210135 73.29315334 -21.40688168 74.70022544 -32.7578125 70.77734375 C-42.63665992 66.48077749 -50.26043831 59.09627492 -55.12890625 49.49609375 C-58.97081261 39.20715274 -59.4051936 25.83282253 -55.02075195 15.64160156 C-50.40885997 6.48599229 -43.62463906 0.45661119 -34.12890625 -3.25390625 C-23.66370287 -6.23888321 -9.43469369 -5.55694802 0 0 Z " fill="#FE6C37" transform="translate(286.12890625,216.25390625)"/>
<path d="M0 0 C5.38935067 -0.09952633 10.7781561 -0.17177659 16.16821289 -0.21972656 C17.99838593 -0.23973374 19.82849592 -0.26694851 21.65844727 -0.30175781 C24.30240512 -0.35076003 26.94551165 -0.37307761 29.58984375 -0.390625 C30.79978249 -0.42159271 30.79978249 -0.42159271 32.03416443 -0.45318604 C39.11187446 -0.45592705 44.96351082 1.58396991 50.5234375 6.0078125 C58.28557135 14.88350142 59.77821376 23.51256233 59.33984375 35.09375 C58.48217603 44.95199964 54.59918732 52.56121 47 59 C44.24609375 60.24609375 44.24609375 60.24609375 42 61 C43.65128827 65.8037477 46.26388311 69.75181852 49 74 C44.38 74 39.76 74 35 74 C34.29875 72.205625 33.5975 70.41125 32.875 68.5625 C31.38642464 65.44344492 31.38642464 65.44344492 29 63 C24.2846076 61.72160473 19.85692906 61.71390692 15 62 C15 65.96 15 69.92 15 74 C10.38 74 5.76 74 1 74 C0.25116636 49.32632972 -0.15101484 24.68511732 0 0 Z " fill="#FE6C37" transform="translate(28,213)"/>
<path d="M0 0 C8.25 0 16.5 0 25 0 C26.29035156 3.60550781 27.58070313 7.21101562 28.91015625 10.92578125 C30.18428077 14.4840427 31.45870396 18.04219704 32.7331543 21.6003418 C33.60716323 24.04098565 34.48086998 26.48173774 35.35424805 28.92260742 C36.622055 32.46562962 37.89083411 36.00830161 39.16015625 39.55078125 C39.57302887 40.70361603 39.98590149 41.85645081 40.4112854 43.04421997 C43.22221414 50.87700101 46.07721773 58.69237427 49.01686096 66.4778595 C51 71.7842699 51 71.7842699 51 74 C39.12 74 27.24 74 15 74 C14.34 72.68 13.68 71.36 13 70 C6.07 69.67 -0.86 69.34 -8 69 C-8.66 70.65 -9.32 72.3 -10 74 C-14.95 74 -19.9 74 -25 74 C-22.86237785 65.85222718 -20.37353074 57.89343367 -17.65625 49.921875 C-17.24588501 48.71106262 -16.83552002 47.50025024 -16.41271973 46.25274658 C-15.55033887 43.71090832 -14.68669472 41.16954522 -13.82080078 38.62890625 C-12.71727079 35.39050981 -11.61922699 32.15028474 -10.52283478 28.90946579 C-9.46594153 25.78764996 -8.40467601 22.6673222 -7.34375 19.546875 C-6.95304321 18.39257996 -6.56233643 17.23828491 -6.15979004 16.04901123 C-5.78930542 14.96388245 -5.4188208 13.87875366 -5.03710938 12.76074219 C-4.71528687 11.81463074 -4.39346436 10.86851929 -4.06188965 9.89373779 C-2.83374221 6.54693368 -1.40433439 3.27678025 0 0 Z " fill="#FE6C36" transform="translate(403,213)"/>
<path d="M0 0 C8.25 0 16.5 0 25 0 C26.29035156 3.60550781 27.58070313 7.21101562 28.91015625 10.92578125 C30.18428077 14.4840427 31.45870396 18.04219704 32.7331543 21.6003418 C33.60716323 24.04098565 34.48086998 26.48173774 35.35424805 28.92260742 C36.622055 32.46562962 37.89083411 36.00830161 39.16015625 39.55078125 C39.57302887 40.70361603 39.98590149 41.85645081 40.4112854 43.04421997 C43.22221414 50.87700101 46.07721773 58.69237427 49.01686096 66.4778595 C51 71.7842699 51 71.7842699 51 74 C39.12 74 27.24 74 15 74 C14.34 72.68 13.68 71.36 13 70 C6.07 69.67 -0.86 69.34 -8 69 C-8.66 70.65 -9.32 72.3 -10 74 C-14.95 74 -19.9 74 -25 74 C-22.86237785 65.85222718 -20.37353074 57.89343367 -17.65625 49.921875 C-17.24588501 48.71106262 -16.83552002 47.50025024 -16.41271973 46.25274658 C-15.55033887 43.71090832 -14.68669472 41.16954522 -13.82080078 38.62890625 C-12.71727079 35.39050981 -11.61922699 32.15028474 -10.52283478 28.90946579 C-9.46594153 25.78764996 -8.40467601 22.6673222 -7.34375 19.546875 C-6.95304321 18.39257996 -6.56233643 17.23828491 -6.15979004 16.04901123 C-5.78930542 14.96388245 -5.4188208 13.87875366 -5.03710938 12.76074219 C-4.71528687 11.81463074 -4.39346436 10.86851929 -4.06188965 9.89373779 C-2.83374221 6.54693368 -1.40433439 3.27678025 0 0 Z " fill="#FE6C36" transform="translate(113,213)"/>
<path d="M0 0 C6.22875 -0.103125 12.4575 -0.20625 18.875 -0.3125 C21.79255127 -0.38078003 21.79255127 -0.38078003 24.76904297 -0.45043945 C41.86975858 -0.68533821 41.86975858 -0.68533821 49 5 C56.02327642 12.14942085 59.19748428 20.49481657 59.5 30.4375 C59.13149952 41.53718113 55.97948349 48.59487601 48.70703125 56.90625 C41.69628306 62.32870459 33.99254309 62.40831183 25.4375 62.1875 C24.42880859 62.17396484 23.42011719 62.16042969 22.38085938 62.14648438 C19.92033712 62.11150065 17.46009418 62.05770855 15 62 C15 65.96 15 69.92 15 74 C10.05 74 5.1 74 0 74 C0 49.58 0 25.16 0 0 Z " fill="#FE6C37" transform="translate(166,213)"/>
<path d="M0 0 C5.28 0 10.56 0 16 0 C16 8.58 16 17.16 16 26 C27.22 26 38.44 26 50 26 C50 17.42 50 8.84 50 0 C55.28 0 60.56 0 66 0 C66.18220882 24.6791725 65.61695867 49.32985752 65 74 C60.38 74 55.76 74 51 74 C51 69.71 51 65.42 51 61 C38.79 61 26.58 61 14 61 C14 65.29 14 69.58 14 74 C9.38 74 4.76 74 0 74 C0 49.58 0 25.16 0 0 Z " fill="#FE6C37" transform="translate(310,213)"/>
<path d="M0 0 C5.28 0 10.56 0 16 0 C16.18220882 24.6791725 15.61695867 49.32985752 15 74 C10.05 74 5.1 74 0 74 C0 49.58 0 25.16 0 0 Z " fill="#FE6D39" transform="translate(456,213)"/>
<path d="M0 0 C3.27105248 -0.05386912 6.54122096 -0.09361007 9.8125 -0.125 C10.74126953 -0.14175781 11.67003906 -0.15851563 12.62695312 -0.17578125 C13.51962891 -0.18222656 14.41230469 -0.18867188 15.33203125 -0.1953125 C16.15421143 -0.20578613 16.9763916 -0.21625977 17.82348633 -0.22705078 C20 0 20 0 23 2 C23.3125 5 23.3125 5 23 8 C21 10 21 10 18.84521484 10.22705078 C17.97590332 10.21657715 17.1065918 10.20610352 16.2109375 10.1953125 C15.26992187 10.18886719 14.32890625 10.18242187 13.359375 10.17578125 C12.37453125 10.15902344 11.3896875 10.14226562 10.375 10.125 C9.38242188 10.11597656 8.38984375 10.10695313 7.3671875 10.09765625 C4.91135612 10.07404249 2.45564826 10.0381707 0 10 C0 6.7 0 3.4 0 0 Z " fill="#D9D4D0" transform="translate(181,255)"/>
<path d="M0 0 C3.27132607 -0.08081043 6.54066421 -0.14040709 9.8125 -0.1875 C10.74126953 -0.21263672 11.67003906 -0.23777344 12.62695312 -0.26367188 C13.9659668 -0.27817383 13.9659668 -0.27817383 15.33203125 -0.29296875 C16.56530151 -0.31653442 16.56530151 -0.31653442 17.82348633 -0.34057617 C20.51849123 0.08113239 21.38324499 0.83800409 23 3 C23.3125 5.5625 23.3125 5.5625 23 8 C21 10 21 10 18.84521484 10.22705078 C17.97590332 10.21657715 17.1065918 10.20610352 16.2109375 10.1953125 C15.26992188 10.18886719 14.32890625 10.18242187 13.359375 10.17578125 C12.37453125 10.15902344 11.3896875 10.14226562 10.375 10.125 C9.38242187 10.11597656 8.38984375 10.10695313 7.3671875 10.09765625 C4.91135612 10.07404249 2.45564826 10.0381707 0 10 C0 6.7 0 3.4 0 0 Z " fill="#DAD3CF" transform="translate(44,255)"/>
<path d="M0 0 C2.61724095 2.36797991 4.32861729 4.89600354 6 8 C6 8.66 6 9.32 6 10 C2.37 10 -1.26 10 -5 10 C-3.51799926 6.29499816 -2.091496 3.32738 0 0 Z " fill="#DDC9C0" transform="translate(405,264)"/>
<path d="M0 0 C2.61724095 2.36797991 4.32861729 4.89600354 6 8 C6 8.66 6 9.32 6 10 C2.37 10 -1.26 10 -5 10 C-3.51799926 6.29499816 -2.091496 3.32738 0 0 Z " fill="#DDC9C0" transform="translate(115,264)"/>
</svg>
